# xmcd
#
# Track frame offsets: 
#        150
#        12782
#        29352
#        40900
#        54317
#        68572
#        80645
#        93910
#        103275
#        114500
#        130550
#        141360
#        157159
#        170195
#
# Disc length: 2449 seconds
#
# Revision: 0
# Processed by: cddbd v1.4PL0 Copyright (c) Steve Scherf et al.
# Submitted via: ExactAudioCopy v0.90b4
#
DISCID=bb098f0e
DTITLE=Moraezinho - O Guasca e o Gay
DYEAR=1997
DGENRE=county
TTITLE0=Dor De Guampa
TTITLE1=O Guasca E O Gay
TTITLE2=Choro Sim
TTITLE3=Vitamina Da Terceira Idade
TTITLE4=Sou Pequeno Mas Cutuco
TTITLE5=Osso Duro De Roer
TTITLE6=Xote Da Paixão
TTITLE7=Não Me Abraça Que A Mamãe Não Quer
TTITLE8=Com As Pilhas Carregadas
TTITLE9=Rei Caminhoneiro
TTITLE10=Trovador Que Canta
TTITLE11=Meu Pedido
TTITLE12=Sonho Esquerdo
TTITLE13=Imagem Gaúcha
EXTD=
EXTT0=
EXTT1=
EXTT2=
EXTT3=
EXTT4=
EXTT5=
EXTT6=
EXTT7=
EXTT8=
EXTT9=
EXTT10=
EXTT11=
EXTT12=
EXTT13=
PLAYORDER=
